<?xml version="1.0" encoding="UTF-8"?>
<svg version="1.1" xmlns="http://www.w3.org/2000/svg" width="1024" height="1024">
<path d="M0 0 C337.92 0 675.84 0 1024 0 C1024 337.92 1024 675.84 1024 1024 C686.08 1024 348.16 1024 0 1024 C0 686.08 0 348.16 0 0 Z " fill="#FDFDFD" transform="translate(0,0)"/>
<path d="M0 0 C0.99 0 1.98 0 3 0 C6.80962577 7.23899315 9.88586631 14.61822187 12.8125 22.25 C16.52891895 31.72111985 20.49213554 40.44093568 26 49 C26.62261719 49.99386719 27.24523437 50.98773438 27.88671875 52.01171875 C35.17213068 63.3166683 43.59248009 73.71660085 52.7421875 83.5546875 C54.68498437 85.65882391 56.53616072 87.80582946 58.375 90 C72.0535882 105.61903909 94.94158918 125.8320933 116.47265625 127.50390625 C143.41228263 128.2980449 162.48465469 112.14225393 181.3034668 94.50512695 C191.71350019 84.60257773 201.14989125 74.04296445 209.80371094 62.57714844 C210.86581628 61.17690344 211.9508582 59.79412236 213.0390625 58.4140625 C225.5991882 42.02904255 233.69126782 23.53883627 240.95361328 4.37231445 C242 2 242 2 244 0 C244.99 0 245.98 0 247 0 C249.47332202 45.01446075 223.14445354 87.69177835 196.11230469 121.74829102 C185.31401938 135.40640489 176.15419937 149.70406873 168.1875 165.1875 C159.43949862 182.15107539 149.3950536 197.70430568 138 213 C137.46665039 213.72026367 136.93330078 214.44052734 136.38378906 215.18261719 C119.47447116 238.01485599 101.62843288 260.5409936 79 278 C78.0203125 278.78503906 77.040625 279.57007813 76.03125 280.37890625 C54.61213211 297.42752973 26.98928844 316.33008763 -1.375 316.0625 C-2.62023437 316.05347656 -3.86546875 316.04445313 -5.1484375 316.03515625 C-6.55996094 316.01775391 -6.55996094 316.01775391 -8 316 C-6.37359073 312.74718145 -2.86564191 311.92007843 0.3125 310.4375 C32.01286201 295.04671902 58.65662705 261.85209813 70.35498047 228.93505859 C79.00051187 202.99846439 78.90852475 176.05806361 66.97167969 151.29492188 C61.05935434 139.75114175 53.11849486 129.50242873 45.375 119.1484375 C37.61185305 108.75874151 30.45010044 98.25858709 24 87 C23.59942383 86.30729004 23.19884766 85.61458008 22.78613281 84.90087891 C13.34794812 68.41712436 6.56799499 50.43117435 2 32 C1.81163574 31.24074219 1.62327148 30.48148437 1.42919922 29.69921875 C-0.03304263 23.20609194 -0.24019916 17.0122437 -0.125 10.375 C-0.11597656 9.37082031 -0.10695313 8.36664063 -0.09765625 7.33203125 C-0.07437746 4.88775874 -0.04168487 2.44401592 0 0 Z " fill="#EB620A" transform="translate(388,264)"/>
<path d="M0 0 C0.66 0 1.32 0 2 0 C4.74114829 2.95200586 7.17332193 6.16115645 9.66748047 9.32324219 C11.00254571 11.00320336 12.35985099 12.66280727 13.72265625 14.3203125 C37.20766985 43.13472922 50.90532945 78.24796284 47.68359375 115.67578125 C43.44474898 149.39560048 27.48351062 177.38555655 5.30419922 202.51660156 C4.20292213 203.76919602 3.11722447 205.03546235 2.03515625 206.3046875 C-4.98747732 214.53356166 -12.75146095 222.01384606 -21 229 C-21.97839844 229.84433594 -22.95679688 230.68867188 -23.96484375 231.55859375 C-30.54335821 237.21508177 -37.24627183 242.61972612 -44.26269531 247.73095703 C-46.21066843 249.15388624 -48.14783641 250.59100047 -50.0859375 252.02734375 C-87.13471384 279.32276461 -128.72813337 301.04455149 -172.2265625 316.02734375 C-174.83550389 316.94231052 -177.38226605 317.9456559 -179.9375 319 C-184.2268233 320.73717594 -188.56303762 322.30546823 -192.9375 323.8125 C-193.58904053 324.04388672 -194.24058105 324.27527344 -194.91186523 324.51367188 C-199.65100233 326.11633256 -199.65100233 326.11633256 -203 325 C-202.29617188 324.48953125 -201.59234375 323.9790625 -200.8671875 323.453125 C-193.14110206 317.76446679 -185.81662289 311.71643419 -178.59814453 305.3984375 C-177.13107287 304.11469377 -175.65763716 302.83823244 -174.18359375 301.5625 C-169.68030083 297.65463173 -169.68030083 297.65463173 -166 293 C-165.34 293 -164.68 293 -164 293 C-163.74347656 292.41347656 -163.48695313 291.82695313 -163.22265625 291.22265625 C-161.88826104 288.79687071 -160.45514672 287.32471299 -158.4375 285.4375 C-154.50015652 281.59172265 -151.0391986 277.51674807 -147.6015625 273.22265625 C-145.69638612 270.84305948 -143.7462038 268.50744557 -141.7734375 266.18359375 C-129.60009526 251.78026909 -119.23873723 236.39964595 -109.53515625 220.24609375 C-109.12007812 219.56611328 -108.705 218.88613281 -108.27734375 218.18554688 C-107.36951852 216.63224958 -106.51799171 215.04544885 -105.70703125 213.43945312 C-101.98090972 206.39017546 -98.10800524 203.72133374 -90.875 200.625 C-88.90306827 199.71126244 -86.93437721 198.7905033 -84.96875 197.86328125 C-83.97488281 197.39744629 -82.98101563 196.93161133 -81.95703125 196.45166016 C-73.99501533 192.54296244 -66.49767792 187.72383071 -59 183 C-58.39978027 182.62246582 -57.79956055 182.24493164 -57.18115234 181.85595703 C-44.6265076 173.88909007 -33.25447157 164.74501216 -22.5390625 154.47167969 C-21.07922001 153.07575162 -19.60254925 151.69748477 -18.125 150.3203125 C-3.91206726 136.71304451 6.32321478 120.03908895 14 102 C14.495 100.91074219 14.99 99.82148438 15.5 98.69921875 C24.60620203 76.24199655 22.81150433 49.36283646 14.25 27 C8.6223428 13.51725446 8.6223428 13.51725446 0 2 C0 1.34 0 0.68 0 0 Z " fill="#029FDE" transform="translate(670,233)"/>
<path d="M0 0 C3.62484999 -0.08681476 7.24943443 -0.14032721 10.875 -0.1875 C12.42380859 -0.22520508 12.42380859 -0.22520508 14.00390625 -0.26367188 C14.99003906 -0.27333984 15.97617187 -0.28300781 16.9921875 -0.29296875 C17.90339355 -0.3086792 18.81459961 -0.32438965 19.75341797 -0.34057617 C20.49479004 -0.22818604 21.23616211 -0.1157959 22 0 C25.87861649 5.81792473 26.25408774 13.16247095 27 20 C28.39249204 20.36708396 29.78923333 20.71806563 31.1875 21.0625 C31.96480469 21.25972656 32.74210938 21.45695312 33.54296875 21.66015625 C36.45163329 22.06246756 38.21646773 21.96856452 41 21 C43.47192795 18.79553376 43.47192795 18.79553376 45.6875 16.0625 C46.45449219 15.16660156 47.22148438 14.27070313 48.01171875 13.34765625 C48.99591797 12.18556641 48.99591797 12.18556641 50 11 C50.66 10.34 51.32 9.68 52 9 C57.00377768 9.28613978 61.01545704 11.26441107 65.375 13.5625 C66.01566406 13.89185547 66.65632812 14.22121094 67.31640625 14.56054688 C68.88138632 15.36639482 70.44124021 16.18218493 72 17 C71.54034292 24.30696249 70.11670277 30.99757448 68 38 C69.21151542 39.20550294 70.44502889 40.38892747 71.6875 41.5625 C72.37199219 42.22378906 73.05648437 42.88507813 73.76171875 43.56640625 C75.89906974 45.24698349 75.89906974 45.24698349 78.42578125 44.84375 C82.10069514 43.63922587 85.6848435 42.25921205 89.28125 40.83984375 C94.12087794 39.34484374 94.12087794 39.34484374 97 40 C99.31194564 42.16872429 101.06446416 44.65873045 102.875 47.25 C103.38546875 47.93191406 103.8959375 48.61382812 104.421875 49.31640625 C108.06247098 54.38372228 108.06247098 54.38372228 107.79199219 57.05200195 C106.24029569 60.86858221 102.70052271 63.65238957 99.7734375 66.49023438 C98.0552712 68.18940728 98.0552712 68.18940728 96 71 C96.1082258 74.00867724 96.93787881 75.84652412 98.0625 78.625 C99 81 99 81 99 84 C99.61746094 84.03738281 100.23492188 84.07476562 100.87109375 84.11328125 C112.97437307 85.05280522 112.97437307 85.05280522 118 88 C119.53998439 90.83357128 119.80064002 91.90467394 120 95 C120.09023438 96.06992188 120.18046875 97.13984375 120.2734375 98.2421875 C120.58759969 104.95927433 120.58759969 104.95927433 120 108 C116.68944096 110.71248359 112.85310351 111.87744097 108.8125 113.1875 C107.76707031 113.53167969 106.72164062 113.87585938 105.64453125 114.23046875 C103 115 103 115 101 115 C99.77486726 119.51811958 99.16536045 123.3636791 100 128 C103.35810644 132.36580531 108.3416643 135.19994204 113 138 C112.37874765 142.52133656 110.57070184 146.24165346 108.5 150.25 C108.01853516 151.20519531 108.01853516 151.20519531 107.52734375 152.1796875 C105.15496483 156.84503517 105.15496483 156.84503517 104 158 C101.93768034 157.91995082 99.87541709 157.83628501 97.81420898 157.73144531 C90.38890753 157.21002216 90.38890753 157.21002216 83.5078125 159.4140625 C79.7827979 163.76917907 79.06927818 168.50085505 78 174 C77.21496094 173.54109375 76.42992187 173.0821875 75.62109375 172.609375 C65.44333872 166.56206784 65.44333872 166.56206784 55 161 C55.72445312 160.24976563 56.44890625 159.49953125 57.1953125 158.7265625 C70.50701162 144.73569506 79.01722361 128.12129998 78.99609375 108.34375 C78.1837338 91.33604384 73.34368476 76.89055086 62 64 C61.35546875 63.24976563 60.7109375 62.49953125 60.046875 61.7265625 C49.27754829 50.0398487 33.51516513 42.57092493 17.65625 41.55859375 C-4.59285675 40.7890496 -22.21855608 46.97377777 -38.625 62.25 C-49.75554248 73.7927848 -56.93986261 90.47659239 -57.3125 106.5 C-56.66202373 125.2011927 -50.70459814 141.96391884 -37 155 C-37 155.66 -37 156.32 -37 157 C-39.58090767 158.31746333 -42.16450458 159.62909617 -44.75 160.9375 C-45.47960937 161.31068359 -46.20921875 161.68386719 -46.9609375 162.06835938 C-47.66992188 162.42607422 -48.37890625 162.78378906 -49.109375 163.15234375 C-50.08342285 163.6472229 -50.08342285 163.6472229 -51.07714844 164.15209961 C-53.03293079 165.01452116 -54.91540694 165.54374179 -57 166 C-57.28488281 165.4225 -57.56976563 164.845 -57.86328125 164.25 C-59.71404405 161.37657851 -61.08040767 159.84395305 -64 158 C-70.24503443 156.92259966 -76.71563915 157.54797804 -83 158 C-84.36907416 155.42362412 -85.72028455 152.84031896 -87.0625 150.25 C-87.64741211 149.15558594 -87.64741211 149.15558594 -88.24414062 148.0390625 C-88.60830078 147.33007812 -88.97246094 146.62109375 -89.34765625 145.890625 C-89.68804932 145.24125977 -90.02844238 144.59189453 -90.37915039 143.92285156 C-91.15265357 141.52721215 -90.89656115 140.32991304 -90 138 C-88.0390625 135.9296875 -88.0390625 135.9296875 -85.625 133.875 C-84.83351563 133.19179688 -84.04203125 132.50859375 -83.2265625 131.8046875 C-81 130 -81 130 -78 128 C-78.495 121.565 -78.495 121.565 -79 115 C-80.85625 114.566875 -82.7125 114.13375 -84.625 113.6875 C-94.86291274 111.13708726 -94.86291274 111.13708726 -98 108 C-98.42860978 101.1223082 -98.58221855 94.45554637 -96 88 C-93.44085276 85.44085276 -91.79558351 85.43065115 -88.25 84.875 C-87.22390625 84.70742187 -86.1978125 84.53984375 -85.140625 84.3671875 C-82.06077228 84.00710522 -79.09752203 83.93508187 -76 84 C-75.87625 83.0925 -75.7525 82.185 -75.625 81.25 C-75 78 -75 78 -73.875 75.875 C-72.8388496 74.06555953 -72.8388496 74.06555953 -73.16796875 72.16796875 C-74.31128727 69.18889935 -76.12864871 67.62074978 -78.4375 65.4375 C-80.99659643 63.00163453 -83.03318947 60.95021579 -85 58 C-84.81074961 53.23582721 -82.14817736 49.91104915 -79.4375 46.1875 C-79.01275391 45.59001953 -78.58800781 44.99253906 -78.15039062 44.37695312 C-77.10776741 42.91259467 -76.05489548 41.45554265 -75 40 C-69.392076 40.65402588 -64.8273064 42.10613344 -59.6484375 44.2578125 C-56.58963481 45.11499909 -54.99881934 44.99633441 -52 44 C-49.06898467 42.17769872 -47.26006418 40.22994618 -46 37 C-46.5773002 33.74332176 -47.64797985 30.9421168 -48.8671875 27.87109375 C-50.38498674 24.02425773 -50.98894284 22.03818327 -50 18 C-47.59561294 15.7939129 -44.90843917 14.44183271 -42 13 C-41.29488281 12.59394531 -40.58976562 12.18789062 -39.86328125 11.76953125 C-34.82522488 8.95781598 -34.82522488 8.95781598 -31.5546875 9.125 C-28.28346225 10.24541966 -26.68933332 11.88114093 -24.3125 14.375 C-23.54550781 15.16648438 -22.77851563 15.95796875 -21.98828125 16.7734375 C-20 19 -20 19 -18 22 C-17.32453125 21.855625 -16.6490625 21.71125 -15.953125 21.5625 C-15.06109375 21.376875 -14.1690625 21.19125 -13.25 21 C-12.36828125 20.814375 -11.4865625 20.62875 -10.578125 20.4375 C-8 20 -8 20 -4 20 C-3.96261719 19.31035156 -3.92523438 18.62070313 -3.88671875 17.91015625 C-3.82097656 16.97042969 -3.75523437 16.03070313 -3.6875 15.0625 C-3.62949219 14.14597656 -3.57148438 13.22945312 -3.51171875 12.28515625 C-2.84389459 7.99782708 -1.46633987 4.07278872 0 0 Z " fill="#04537E" transform="translate(501,141)"/>
<path d="M0 0 C0.495 0.99 0.495 0.99 1 2 C-0.12344031 4.53002412 -1.30959033 6.97246152 -2.5625 9.4375 C-17.29237954 39.71217229 -20.56241687 73.91463336 -10.18432617 106.13793945 C-6.27772535 117.40681666 -0.91507087 128.02958635 7 137 C7.63035156 137.77214844 8.26070313 138.54429687 8.91015625 139.33984375 C28.17566442 162.13436089 56.45828102 174.55379608 85 181 C85.79003418 181.19078125 86.58006836 181.3815625 87.39404297 181.578125 C103.48535396 185.43092828 119.53595906 185.80737985 136 186 C136.33684526 201.39580986 132.31978464 215.08124539 126 229 C121.30934399 233.69065601 112.05859202 232.23421451 105.8125 232.25 C94.58967447 232.24609912 83.95658004 231.41932239 73 229 C71.83162598 228.74259033 71.83162598 228.74259033 70.63964844 228.47998047 C35.35165004 220.43776658 1.0813787 201.71744029 -18.66699219 170.4519043 C-26.23469419 157.96971211 -30.8243298 145.16837474 -34 131 C-34.176521 130.42209717 -34.35304199 129.84419434 -34.53491211 129.2487793 C-35.19645682 126.05009774 -35.18221647 122.87375759 -35.203125 119.62109375 C-35.21018463 118.90120773 -35.21724426 118.18132172 -35.22451782 117.43962097 C-35.45496872 86.9769189 -35.45496872 86.9769189 -32 73 C-31.79600586 72.16936035 -31.59201172 71.3387207 -31.38183594 70.48291016 C-25.04137115 45.43022943 -14.78486304 21.29228516 0 0 Z " fill="#88C330" transform="translate(313,273)"/>
<path d="M0 0 C9.9 0 19.8 0 30 0 C31.65 3.58875 33.3 7.1775 35 10.875 C46.7373552 36.33593136 58.76971651 61.65980131 70.78555298 86.99014282 C71.48439914 88.4645218 72.18247348 89.93926689 72.87973022 91.41439819 C74.67573496 95.2138006 76.48321909 99.00708964 78.30859375 102.79248047 C79.04948699 104.33951448 79.79037267 105.88655212 80.53125 107.43359375 C80.88006226 108.1501564 81.22887451 108.86671906 81.58825684 109.60499573 C84 114.66137357 84 114.66137357 84 118 C74.1 118 64.2 118 54 118 C50.37 109.75 46.74 101.5 43 93 C24.19 93 5.38 93 -14 93 C-16.97 99.93 -19.94 106.86 -23 114 C-23.66 115.32 -24.32 116.64 -25 118 C-34.57 118 -44.14 118 -54 118 C-53.14179573 113.70897863 -52.19239101 110.99453143 -50.296875 107.15234375 C-49.73564941 106.00483643 -49.17442383 104.8573291 -48.59619141 103.67504883 C-48.29594055 103.06738678 -47.9956897 102.45972473 -47.68634033 101.83364868 C-46.0721154 98.56474059 -44.4782685 95.28591128 -42.8828125 92.0078125 C-42.55513885 91.33553116 -42.22746521 90.66324982 -41.88986206 89.97059631 C-38.7207143 83.45520223 -35.66052687 76.89114303 -32.625 70.3125 C-28.07758375 60.46386283 -23.48342004 50.63917135 -18.85296631 40.82937622 C-12.45276915 27.26964602 -6.16139501 13.67059519 0 0 Z " fill="#112A48" transform="translate(628,651)"/>
<path d="M0 0 C2.63501176 2.33232226 3.90473314 4.58396455 5.3046875 7.796875 C5.92911743 9.22435059 5.92911743 9.22435059 6.56616211 10.68066406 C6.99807861 11.69354492 7.42999512 12.70642578 7.875 13.75 C8.32045166 14.78608398 8.76590332 15.82216797 9.22485352 16.88964844 C24.2305267 52.23524655 32.50905564 95.63796913 20 133 C19.77006348 133.72268066 19.54012695 134.44536133 19.30322266 135.18994141 C14.91248261 148.82205505 8.2656457 161.04484117 -1 172 C-1.91812655 173.11445335 -2.83608126 174.22904828 -3.75390625 175.34375 C-9.70081823 182.49781365 -15.78199986 189.09086389 -23 195 C-23.62616211 195.51530273 -24.25232422 196.03060547 -24.89746094 196.56152344 C-69.63407356 233.12249404 -126.36394327 252.45894451 -182.6875 262.375 C-183.63737793 262.54273926 -184.58725586 262.71047852 -185.56591797 262.88330078 C-190.09549138 263.64383593 -194.38786608 264.19886481 -199 264 C-195.36301584 260.81404026 -191.14568598 259.41368969 -186.6875 257.75 C-163.89088056 248.90402984 -141.99663282 237.47852577 -121 225 C-120.16629883 224.50483887 -119.33259766 224.00967773 -118.47363281 223.49951172 C-99.2667381 212.03242507 -81.12662486 199.40579935 -64 185 C-62.92580037 184.11325808 -61.8515806 183.22654058 -60.77734375 182.33984375 C-47.66467374 171.41542419 -35.43060805 159.53213355 -25 146 C-23.824375 144.56720703 -23.824375 144.56720703 -22.625 143.10546875 C1.45722822 113.19082589 12.86929309 76.54842306 9.78173828 38.29589844 C8.54893985 27.10321534 5.67723112 16.61906677 2 6 C1.33197479 4.00045336 0.66482815 2.0006119 0 0 Z " fill="#102B4B" transform="translate(722,291)"/>
<path d="M0 0 C9.57 0 19.14 0 29 0 C29.33 17.16 29.66 34.32 30 52 C35.55886207 47.13599569 40.3200766 42.57812186 45 37 C77.26847271 -0.84584029 77.26847271 -0.84584029 91.5546875 -2.42578125 C99.12395981 -2.89499339 106.66160349 -1.83326515 114 0 C114 0.66 114 1.32 114 2 C113.34 2 112.68 2 112 2 C111.75733398 2.56732849 111.51466797 3.13465698 111.26464844 3.71917725 C109.75660785 6.43896338 107.96323905 8.29101565 105.765625 10.49316406 C104.89131836 11.37377502 104.01701172 12.25438599 103.11621094 13.16168213 C102.16106205 14.1132522 101.20565216 15.06456036 100.25 16.015625 C99.27086602 16.99610659 98.29202907 17.97688487 97.31347656 18.95794678 C95.26560571 21.00876159 93.21417216 23.05592635 91.16015625 25.10058594 C88.52359985 27.72571808 85.89616355 30.35976695 83.27130127 32.99658585 C81.25380379 35.0212959 79.23158501 37.04123608 77.20788574 39.05974579 C76.23674562 40.02954931 75.26709572 41.00084742 74.2989502 41.97364044 C72.94892166 43.32872736 71.59182027 44.67675686 70.234375 46.02441406 C69.07760254 47.17879974 69.07760254 47.17879974 67.89746094 48.35650635 C66 50 66 50 64 50 C67.05780203 54.77459209 70.454176 59.13098785 74.0625 63.5 C78.31239642 68.68281511 82.51071636 73.89642507 86.625 79.1875 C91.0642797 84.88179653 95.67820685 90.40570781 100.36328125 95.8984375 C106.48941565 103.08482129 112.36721761 110.4223558 118 118 C113.18071514 118.27401898 108.36604365 118.47241001 103.54077148 118.60424805 C101.90389998 118.65923506 100.2675607 118.73406381 98.63256836 118.82983398 C85.07238286 119.60363767 85.07238286 119.60363767 80.01660156 115.69140625 C77.7305502 112.89807548 75.86805066 110.08372095 74 107 C72.56738105 105.18770629 71.1119016 103.39302974 69.625 101.625 C68.88636719 100.72136719 68.14773438 99.81773437 67.38671875 98.88671875 C64.7634608 95.71390758 62.10402567 92.5739142 59.4375 89.4375 C56.03094874 85.42142428 52.64102435 81.39376484 49.3125 77.3125 C48.66925781 76.52488281 48.02601563 75.73726562 47.36328125 74.92578125 C46 73 46 73 46 71 C44.12523577 72.58869667 42.27587726 74.19602053 40.45092773 75.84204102 C38 78 38 78 35.62304688 79.80078125 C31.08292898 83.57979514 28.56618997 86.57011677 27.99375916 92.61427307 C27.8378714 96.10305192 27.86618429 99.57201444 27.9375 103.0625 C27.9344196 104.51498835 27.92729011 105.96747402 27.91601562 107.41992188 C27.88983212 110.9506669 27.94661686 114.46603613 28 118 C18.76 118 9.52 118 0 118 C0 79.06 0 40.12 0 0 Z " fill="#122B49" transform="translate(453,651)"/>
<path d="M0 0 C9.24 0 18.48 0 28 0 C28.0093457 2.17883789 28.01869141 4.35767578 28.02832031 6.60253906 C28.06225563 13.84301428 28.11789518 21.08320943 28.18390274 28.32345963 C28.22322592 32.70849237 28.25548803 37.09332886 28.27099609 41.47851562 C28.28626349 45.71927268 28.32088453 49.95948961 28.36830902 54.20000458 C28.38301978 55.80886867 28.39103502 57.41780991 28.39188385 59.02674103 C28.40303059 69.57158858 28.53850948 80.36443303 35.375 89 C44.49660054 95.94979089 51.58380019 96.89538822 63 96 C69.15050013 94.50700261 74.12210938 92.13250229 78 87 C81.9859757 79.67882014 83.10314115 73.02993491 83.20532227 64.70947266 C83.21522186 64.00633942 83.22512146 63.30320618 83.23532104 62.57876587 C83.26669873 60.27389802 83.29159869 57.96900962 83.31640625 55.6640625 C83.33699632 54.05837494 83.35799331 52.45269254 83.37937927 50.84701538 C83.434388 46.63523565 83.48389013 42.42340873 83.53222656 38.21154785 C83.58259706 33.90791662 83.63820171 29.60435332 83.69335938 25.30078125 C83.8006814 16.86724356 83.90169911 8.43364767 84 0 C93.24 0 102.48 0 112 0 C112.06800908 10.11033508 112.12295006 20.22051608 112.15543652 30.33102894 C112.17103512 35.02668122 112.19216624 39.72216771 112.22631836 44.41772461 C112.25912026 48.95649005 112.27689658 53.49509688 112.28463173 58.03397179 C112.29013809 59.75817038 112.30088981 61.48236114 112.31719017 63.20649147 C112.46338101 79.32302121 110.26060884 94.00501422 98.80078125 106.3828125 C84.52548988 119.2027054 66.76131662 121.71285737 48.36230469 121.13183594 C33.29152951 120.29076333 20.14590701 114.16049771 10 103 C0.28181201 90.4333776 -0.58095717 76.431986 -0.390625 61.23046875 C-0.38314658 59.45543562 -0.37746124 57.68039413 -0.37347412 55.90534973 C-0.35834359 51.27745991 -0.31917352 46.65008788 -0.2746582 42.0223999 C-0.23343086 37.2825826 -0.21540499 32.54268004 -0.1953125 27.80273438 C-0.15266424 18.53489442 -0.08242068 9.26757166 0 0 Z " fill="#112A49" transform="translate(202,651)"/>
<path d="M0 0 C0.66 0.33 1.32 0.66 2 1 C-27.30561963 48.2146094 -70.50189213 79.52767365 -122 99 C-122.71897461 99.27859863 -123.43794922 99.55719727 -124.17871094 99.84423828 C-141.8320406 106.63998908 -161.25869078 109.21062432 -179.92578125 111.71777344 C-181.83001665 111.97687138 -183.72980387 112.26812891 -185.62890625 112.5625 C-192.00980058 113.33860779 -198.45628387 113.24445033 -204.875 113.25 C-205.57841522 113.25067474 -206.28183044 113.25134949 -207.00656128 113.25204468 C-235.97095643 113.20828131 -263.47560024 107.77283716 -291 99 C-291 98.34 -291 97.68 -291 97 C-273.63787375 90.66112957 -273.63787375 90.66112957 -265 89 C-257.75793898 87.40410509 -250.72055304 85.33406353 -243.6875 83 C-242.5584021 82.62633301 -242.5584021 82.62633301 -241.40649414 82.24511719 C-238.07804832 81.12152282 -234.95273909 79.9767739 -231.78979492 78.42236328 C-227.56830973 76.60436603 -223.70261586 76.63459637 -219.1640625 76.7421875 C-217.90763443 76.75211227 -217.90763443 76.75211227 -216.62582397 76.76223755 C-213.95849617 76.78548392 -211.29202438 76.82902516 -208.625 76.875 C-205.13808047 76.92212926 -201.65115598 76.96052575 -198.1640625 76.9921875 C-196.87860031 77.00398544 -196.87860031 77.00398544 -195.56716919 77.01602173 C-147.82873526 77.27162267 -98.15005157 65.20685899 -55.89697266 42.99121094 C-53.99656949 41.99820748 -52.08411158 41.03253564 -50.16796875 40.0703125 C-41.16423091 35.49051663 -33.01713116 30.13608509 -25 24 C-24.05511719 23.28070313 -23.11023438 22.56140625 -22.13671875 21.8203125 C-9.56869427 12.24466332 -9.56869427 12.24466332 0 0 Z " fill="#F07E0B" transform="translate(717,485)"/>
<path d="M0 0 C0 4.10751226 -1.89099228 7.00782834 -3.75 10.5625 C-8.41549403 19.73970294 -12.00424687 28.60966988 -14.6875 38.5625 C-14.90237061 39.35438721 -15.11724121 40.14627441 -15.33862305 40.9621582 C-22.8248785 69.82659696 -17.21277484 100.69927486 -2.52416992 126.27563477 C17.7830643 160.42162334 56.07126663 195.07263625 95 206 C95 208.97 95 211.94 95 215 C62.5636198 216.14481342 26.80277383 206.63249447 2 185 C1.16984375 184.278125 0.3396875 183.55625 -0.515625 182.8125 C-3.04186089 180.57368017 -5.52591707 178.29618065 -8 176 C-8.60585938 175.45988281 -9.21171875 174.91976562 -9.8359375 174.36328125 C-23.3203877 161.79678658 -31.45771511 144.60942674 -36 127 C-36.17732666 126.39389893 -36.35465332 125.78779785 -36.53735352 125.16333008 C-38.51336458 117.69458865 -38.35569863 110.1056974 -38.3125 102.4375 C-38.30968018 101.72013672 -38.30686035 101.00277344 -38.30395508 100.26367188 C-38.24264665 89.90833124 -38.00719191 80.00157741 -35 70 C-34.74186523 69.12005371 -34.48373047 68.24010742 -34.21777344 67.33349609 C-26.77384093 42.45856105 -15.6686472 20.65810469 0 0 Z " fill="#F69108" transform="translate(353,233)"/>
<path d="M0 0 C35.64 0 71.28 0 108 0 C108 7.26 108 14.52 108 22 C94.8 22 81.6 22 68 22 C68 53.68 68 85.36 68 118 C58.43 118 48.86 118 39 118 C39 86.32 39 54.64 39 22 C26.13 22 13.26 22 0 22 C0 14.74 0 7.48 0 0 Z " fill="#112A49" transform="translate(329,651)"/>
<path d="M0 0 C2.61003799 2.2858613 4.32123317 4.96533446 6.15795898 7.88623047 C14.38340522 20.90504106 24.62854346 31.80780044 37 41 C38.00546875 41.74765625 39.0109375 42.4953125 40.046875 43.265625 C57.01497456 55.43299395 75.80076399 63.4692895 95.9375 68.875 C96.64487305 69.06602295 97.35224609 69.2570459 98.08105469 69.45385742 C110.37811584 72.55626244 122.76157145 73.33995077 135.375 73.625 C136.80470747 73.66332473 138.23439544 73.7023839 139.6640625 73.7421875 C143.10919305 73.8365474 146.55447593 73.92112424 150 74 C143.51649571 94.41155164 121.10972475 113.59351683 104 125 C99.28959868 124.73415724 95.4454851 122.29499505 91.4375 120 C90.72932129 119.59628174 90.02114258 119.19256348 89.29150391 118.77661133 C69.26767165 107.13710893 51.10939935 90.27047645 37 72 C36.57750977 71.45923828 36.15501953 70.91847656 35.71972656 70.36132812 C22.53550419 53.39229977 0 22.53182003 0 0 Z " fill="#119F34" transform="translate(284,435)"/>
<path d="M0 0 C9.57 0 19.14 0 29 0 C29 31.68 29 63.36 29 96 C49.79 96 70.58 96 92 96 C92 103.26 92 110.52 92 118 C61.64 118 31.28 118 0 118 C0 79.06 0 40.12 0 0 Z " fill="#102947" transform="translate(727,651)"/>
<path d="M0 0 C0.66 0 1.32 0 2 0 C3.8121781 11.32896246 5.44919886 22.52814175 6 34 C10.0519875 30.11218142 13.57658912 25.96044794 17.0625 21.5625 C17.8369043 20.59860352 17.8369043 20.59860352 18.62695312 19.61523438 C21.62269786 15.85624258 24.39591988 12.04038331 27 8 C28 10 28 10 27.19555664 12.88916016 C26.55928345 14.69586182 26.55928345 14.69586182 25.91015625 16.5390625 C25.68678085 17.17991791 25.46340546 17.82077332 25.23326111 18.48104858 C24.51670817 20.5315779 23.7897508 22.57824339 23.0625 24.625 C22.57548326 26.01277937 22.08914631 27.4007975 21.60351562 28.7890625 C20.4102257 32.1955163 19.20757645 35.59858074 18 39 C21.93942975 37.21255458 25.87619955 35.41932499 29.8125 33.625 C30.93205078 33.11710937 32.05160156 32.60921875 33.20507812 32.0859375 C34.27822266 31.59609375 35.35136719 31.10625 36.45703125 30.6015625 C37.44678955 30.15119629 38.43654785 29.70083008 39.45629883 29.23681641 C42.1481927 27.9987195 42.1481927 27.9987195 45 26 C46.485 26.495 46.485 26.495 48 27 C46.54166667 28.3125 45.08333333 29.625 43.625 30.9375 C42.71878906 31.75347656 41.81257812 32.56945312 40.87890625 33.41015625 C38.99244474 35.10720372 37.10447742 36.80257914 35.21484375 38.49609375 C34.33957031 39.28113281 33.46429687 40.06617188 32.5625 40.875 C31.75941406 41.59429687 30.95632813 42.31359375 30.12890625 43.0546875 C28.36948311 44.66238057 26.66593812 46.29656488 25 48 C26.2375 47.71125 27.475 47.4225 28.75 47.125 C33.54097021 46.05612848 38.3570379 45.24047409 43.203125 44.46484375 C45.81554835 44.03065607 48.40651979 43.53478698 51 43 C48.18457974 46.18532949 44.66749953 48.34189219 41.125 50.625 C40.51269531 51.03234375 39.90039062 51.4396875 39.26953125 51.859375 C35.87887726 54.05204632 33.03836832 55.55470463 29 56 C29 56.66 29 57.32 29 58 C29.80179688 57.97679687 30.60359375 57.95359375 31.4296875 57.9296875 C41.42671844 57.77100447 51.09530691 58.74226119 61 60 C61 60.33 61 60.66 61 61 C57.56563469 61.68351005 54.12713415 62.34356434 50.6875 63 C49.73037109 63.19078125 48.77324219 63.3815625 47.78710938 63.578125 C41.11763191 64.83566957 34.78128037 65.23895861 28 65 C28 66.32 28 67.64 28 69 C28.57814453 69.11174561 29.15628906 69.22349121 29.75195312 69.33862305 C32.24055141 70.07077039 33.85668586 71.08462276 35.96875 72.58203125 C36.70480469 73.10216797 37.44085937 73.62230469 38.19921875 74.15820312 C38.95847656 74.70412109 39.71773437 75.25003906 40.5 75.8125 C41.25925781 76.34681641 42.01851562 76.88113281 42.80078125 77.43164062 C46.4912567 80.05892306 49.93469062 82.63305114 53 86 C46.73816161 85.37641443 41.12240265 83.5397388 35.1875 81.5 C34.23423828 81.17902344 33.28097656 80.85804688 32.29882812 80.52734375 C25.3395261 78.16976305 25.3395261 78.16976305 23 77 C24.32620052 81.24384166 26.58857617 84.2683959 29.26953125 87.73046875 C32.31428891 91.72370623 35.14124684 95.87256941 38 100 C37.67 100.66 37.34 101.32 37 102 C21.61792648 90.29574556 21.61792648 90.29574556 17 86 C17 85.34 17 84.68 17 84 C16.34 84 15.68 84 15 84 C15.495 85.19625 15.99 86.3925 16.5 87.625 C17.85911235 91.21101476 18.2899464 94.13404799 18 98 C13.73709684 97.10776445 11.6709256 95.96410207 9.25 92.4375 C8.86328125 91.81746094 8.4765625 91.19742188 8.078125 90.55859375 C7.07049909 88.83475976 7.07049909 88.83475976 5 88 C4.67 90.31 4.34 92.62 4 95 C1.125 95.1875 1.125 95.1875 -2 95 C-4 92 -4 92 -4 88 C-4.66 88 -5.32 88 -6 88 C-6.433125 89.175625 -6.433125 89.175625 -6.875 90.375 C-8 93 -8 93 -10 95 C-12.625 95.125 -12.625 95.125 -15 95 C-15 93.02 -15 91.04 -15 89 C-15.73605469 89.54269531 -16.47210938 90.08539063 -17.23046875 90.64453125 C-18.20628906 91.35996094 -19.18210937 92.07539063 -20.1875 92.8125 C-21.15042969 93.52019531 -22.11335938 94.22789062 -23.10546875 94.95703125 C-25.69142333 96.78220567 -28.19102559 98.53972142 -31 100 C-31.66 99.67 -32.32 99.34 -33 99 C-31.58963629 96.74582895 -30.17206458 94.49677288 -28.75 92.25 C-28.15638672 91.29867187 -28.15638672 91.29867187 -27.55078125 90.328125 C-25.30529137 86.79423928 -23.00099641 83.94593226 -20 81 C-20 80.34 -20 79.68 -20 79 C-20.928125 79.28875 -21.85625 79.5775 -22.8125 79.875 C-25.93619226 80.7737686 -29.04662739 81.39058273 -32.25 81.9375 C-37.94504944 82.92485254 -43.45254471 84.39048686 -49 86 C-45.28202099 82.07037133 -41.36159958 78.91359207 -36.9375 75.8125 C-36.02000977 75.15604492 -36.02000977 75.15604492 -35.08398438 74.48632812 C-32.15417625 72.41170723 -29.28437417 70.46609221 -26 69 C-26 68.34 -26 67.68 -26 67 C-27.22976563 66.80664062 -28.45953125 66.61328125 -29.7265625 66.4140625 C-31.35941728 66.15130426 -32.99222746 65.88826875 -34.625 65.625 C-35.83736328 65.43550781 -35.83736328 65.43550781 -37.07421875 65.2421875 C-41.57099173 64.5110049 -45.6822623 63.48887507 -50 62 C-51.61719629 61.73788562 -53.24342789 61.52332474 -54.875 61.375 C-55.65617187 61.30023438 -56.43734375 61.22546875 -57.2421875 61.1484375 C-57.82226562 61.09945312 -58.40234375 61.05046875 -59 61 C-59 60.67 -59 60.34 -59 60 C-48.34033317 58.65612523 -37.72948787 57.59347968 -27 57 C-27.90621094 56.56429687 -28.81242187 56.12859375 -29.74609375 55.6796875 C-36.84364511 52.22453162 -43.5797489 48.63684802 -50 44 C-47.06882694 42.53441347 -45.27042507 43.516715 -42.125 44.3125 C-35.78600192 45.85308147 -29.44603745 47.01276904 -23 48 C-23 47.34 -23 46.68 -23 46 C-23.54011719 45.77699219 -24.08023438 45.55398437 -24.63671875 45.32421875 C-27.75926201 43.57456228 -30.22106762 41.24738371 -32.8125 38.8125 C-33.60382324 38.07809692 -33.60382324 38.07809692 -34.41113281 37.32885742 C-38.3659039 33.64141528 -42.2195278 29.86639202 -46 26 C-42.21832603 26 -39.70720041 27.48428532 -36.4375 29.1875 C-35.17974096 29.8308337 -33.92192809 30.47406215 -32.6640625 31.1171875 C-32.0443457 31.43655273 -31.42462891 31.75591797 -30.78613281 32.08496094 C-27.53973643 33.74809566 -24.26057026 35.34563515 -20.98828125 36.95703125 C-19 38 -19 38 -16 40 C-18.50952722 31.68631487 -21.16188943 23.43875968 -23.94921875 15.21484375 C-24.73438243 12.81265152 -25.44144743 10.46131406 -26 8 C-25.34 8 -24.68 8 -24 8 C-22.9140625 9.44140625 -22.9140625 9.44140625 -21.625 11.5625 C-18.13651555 17.02197817 -14.08779262 21.96123358 -9.96337891 26.94555664 C-6 31.79142127 -6 31.79142127 -6 34 C-5.34 33.67 -4.68 33.34 -4 33 C-3.53517844 30.54164014 -3.19693384 28.16541355 -2.9296875 25.68359375 C-2.84373322 24.95253922 -2.75777893 24.22148468 -2.66921997 23.46827698 C-2.39580243 21.12559356 -2.13527761 18.78167613 -1.875 16.4375 C-1.69225145 14.85211589 -1.50866854 13.26682771 -1.32421875 11.68164062 C-0.87311173 7.78880897 -0.4335645 3.89482287 0 0 Z " fill="#F7AC12" transform="translate(511,192)"/>
<path d="M0 0 C9.15505621 -0.54834972 16.10348141 2.40952897 23.3203125 7.9609375 C25.1385086 9.64532696 26.66193632 11.36872705 28.1875 13.3203125 C28.6928125 13.93003906 29.198125 14.53976562 29.71875 15.16796875 C34.59791423 22.20209718 34.51339176 31.12071875 33.1875 39.3203125 C30.18301123 48.94737158 24.87554477 54.88625522 16.1875 59.6328125 C7.72437424 63.55514578 -1.65725154 63.225034 -10.359375 60.35546875 C-18.83414529 56.7793316 -25.01456453 49.86160527 -28.6875 41.5078125 C-31.34752209 33.43274545 -30.39113228 24.92490609 -26.8125 17.3203125 C-22.87494199 9.73546517 -17.75048468 4.54705676 -9.65625 1.51171875 C-6.46150517 0.67251947 -3.27633412 0.37313805 0 0 Z " fill="#EC650A" transform="translate(507.8125,320.6796875)"/>
<path d="M0 0 C4.28986436 1.7172213 8.53627557 3.52954823 12.73461914 5.45996094 C16.976615 7.36720768 20.24094675 8.59127631 25 8 C26.87890434 6.62493901 26.87890434 6.62493901 28 5 C31.98571429 10.19350649 31.98571429 10.19350649 32.04296875 13.42578125 C30.51824616 17.18904788 27.63098006 18.56312276 24.25 20.5 C16.38519246 25.11771895 11.30054548 30.74402743 5.76953125 37.98828125 C5.18558594 38.65214844 4.60164062 39.31601562 4 40 C3.34 40 2.68 40 2 40 C1.88785156 39.10861328 1.88785156 39.10861328 1.7734375 38.19921875 C-0.33020286 24.93803493 -7.65387179 15.13605149 -18.375 7.25390625 C-20.85919237 5.68085681 -23.37324146 4.32094918 -26 3 C-26.95648437 2.49855469 -27.91296875 1.99710937 -28.8984375 1.48046875 C-40.01809364 -3.83704236 -51.9539466 -5.78794435 -64 -8 C-47.26472976 -17.38317025 -16.5819269 -5.95777137 0 0 Z " fill="#A1CF52" transform="translate(553,307)"/>
<path d="M0 0 C0.91354248 0.00128906 1.82708496 0.00257813 2.76831055 0.00390625 C11.10085635 0.12006965 18.97378435 1.39042895 27.0625 3.3125 C24.17971433 5.23435711 21.66145641 6.27956172 18.4375 7.5 C5.74950804 12.74702932 0.01063284 20.34295597 -5.23828125 32.625 C-5.46902344 33.181875 -5.69976562 33.73875 -5.9375 34.3125 C-6.865625 33.466875 -7.79375 32.62125 -8.75 31.75 C-16.62121385 25.01908272 -25.81806268 20.12798624 -34.9375 15.3125 C-31.43720214 7.82964101 -24.28740793 5.20911251 -16.9375 2.3125 C-11.18451012 0.30208395 -6.02274263 -0.03531429 0 0 Z " fill="#ABD470" transform="translate(470.9375,306.6875)"/>
<path d="M0 0 C3.50625 -0.061875 7.0125 -0.12375 10.625 -0.1875 C11.71893066 -0.21481201 12.81286133 -0.24212402 13.93994141 -0.27026367 C20.4234062 -0.32557116 24.48650662 0.48398144 29.84375 4.3203125 C32.49158829 8.16683434 31.65486767 13.58261991 31 18 C29.57866113 20.55840997 28.49818424 21.33454384 26 23 C25.34 23 24.68 23 24 23 C24.5775 23.77085937 25.155 24.54171875 25.75 25.3359375 C26.4925 26.33882812 27.235 27.34171875 28 28.375 C29.11375 29.87160156 29.11375 29.87160156 30.25 31.3984375 C32 34 32 34 32 36 C28.83635799 36.5810771 26.14455426 36.75130964 23 36 C20.07064092 33.37312908 17.92320778 30.42590711 16 27 C16 26.34 16 25.68 16 25 C13.36 25 10.72 25 8 25 C8 28.63 8 32.26 8 36 C5.36 36 2.72 36 0 36 C0 24.12 0 12.24 0 0 Z " fill="#F38612" transform="translate(684,804)"/>
<path d="M0 0 C2.46844646 2.21358823 3.71591863 4.20067247 4.98046875 7.25390625 C5.33633057 8.10041748 5.69219238 8.94692871 6.05883789 9.8190918 C6.61752563 11.17707886 6.61752563 11.17707886 7.1875 12.5625 C7.98054671 14.45624226 8.77484247 16.34946188 9.5703125 18.2421875 C9.9715332 19.19963867 10.37275391 20.15708984 10.78613281 21.14355469 C12.97587759 26.29641349 15.28865371 31.3947572 17.61206055 36.48852539 C20 41.78548702 20 41.78548702 20 44 C7.46 44 -5.08 44 -18 44 C-17.10785219 39.53926095 -15.77954458 35.8594217 -13.9453125 31.7578125 C-13.64309784 31.07121552 -13.34088318 30.38461853 -13.0295105 29.67721558 C-12.06603037 27.49103705 -11.09569664 25.30798246 -10.125 23.125 C-9.48000059 21.6655714 -8.83546473 20.20593784 -8.19140625 18.74609375 C-7.27884093 16.67789979 -6.36566116 14.61000776 -5.44876099 12.54373169 C-3.5997113 8.3759203 -1.78854731 4.19399817 0 0 Z " fill="#F5F6F7" transform="translate(642,679)"/>
<path d="M0 0 C8 0 8 0 9.93041992 1.18994141 C10.35943604 1.73827637 10.78845215 2.28661133 11.23046875 2.8515625 C11.97006836 3.75841797 11.97006836 3.75841797 12.72460938 4.68359375 C13.20736328 5.32425781 13.69011719 5.96492187 14.1875 6.625 C14.68185547 7.24246094 15.17621094 7.85992188 15.68554688 8.49609375 C16.62067542 9.6665445 17.54617622 10.84481434 18.45776367 12.03369141 C20.57836549 14.73739997 22.80024293 17.36029151 25 20 C25.33 13.4 25.66 6.8 26 0 C28.97 0 31.94 0 35 0 C35 11.88 35 23.76 35 36 C27 36 27 36 24.78515625 34.41796875 C24.21667969 33.68191406 23.64820313 32.94585938 23.0625 32.1875 C22.4128125 31.37667969 21.763125 30.56585937 21.09375 29.73046875 C20.4028125 28.82941406 19.711875 27.92835938 19 27 C17.35799398 24.99685658 15.71217245 22.99683454 14.0625 21 C13.31097656 20.071875 12.55945313 19.14375 11.78515625 18.1875 C10.89306621 17.09434809 9.99769879 15.99769879 9 15 C8.67 21.93 8.34 28.86 8 36 C5.36 36 2.72 36 0 36 C0 24.12 0 12.24 0 0 Z " fill="#F38914" transform="translate(588,804)"/>
<path d="M0 0 C9.24 0 18.48 0 28 0 C28 2.31 28 4.62 28 7 C21.4 7 14.8 7 8 7 C8 9.31 8 11.62 8 14 C13.94 14 19.88 14 26 14 C26 16.31 26 18.62 26 21 C20.06 21 14.12 21 8 21 C8 23.64 8 26.28 8 29 C14.6 29 21.2 29 28 29 C28 31.31 28 33.62 28 36 C18.76 36 9.52 36 0 36 C0 24.12 0 12.24 0 0 Z " fill="#F48813" transform="translate(543,804)"/>
<path d="M0 0 C2.64 0 5.28 0 8 0 C8.33 4.95 8.66 9.9 9 15 C10.45019531 13.37578125 10.45019531 13.37578125 11.9296875 11.71875 C13.24340053 10.31120032 14.55858344 8.90502152 15.875 7.5 C16.50664062 6.78457031 17.13828125 6.06914063 17.7890625 5.33203125 C22.64662163 0.23159416 22.64662163 0.23159416 26.73925781 -0.46875 C29.20658742 -0.46875 31.55770702 -0.33859774 34 0 C29.59156563 5.29012124 24.92440206 10.18808428 20 15 C21.27405873 17.71033085 22.66056239 20.01170741 24.53125 22.34765625 C25.01207031 22.95287109 25.49289062 23.55808594 25.98828125 24.18164062 C26.48714844 24.80232422 26.98601562 25.42300781 27.5 26.0625 C28.49055328 27.30261128 29.48017165 28.54347004 30.46875 29.78515625 C30.90638672 30.33051025 31.34402344 30.87586426 31.79492188 31.43774414 C32.93005575 32.9093247 33.96908133 34.45362199 35 36 C31.48180441 36.66103884 28.50317078 36.81141404 25 36 C20.49824483 32.32413074 17.20689996 27.81034994 14 23 C11.3094472 24.22007944 11.3094472 24.22007944 9 26 C8.76712992 27.68183948 8.58735834 29.3712416 8.4375 31.0625 C8.35371094 31.98160156 8.26992188 32.90070312 8.18359375 33.84765625 C8.12300781 34.55792969 8.06242187 35.26820313 8 36 C5.36 36 2.72 36 0 36 C0 24.12 0 12.24 0 0 Z " fill="#F38815" transform="translate(310,804)"/>
<path d="M0 0 C9.24 0 18.48 0 28 0 C28 1.98 28 3.96 28 6 C21.4 6 14.8 6 8 6 C8 8.64 8 11.28 8 14 C13.94 14 19.88 14 26 14 C26 16.31 26 18.62 26 21 C20.06 21 14.12 21 8 21 C8 23.64 8 26.28 8 29 C14.6 29 21.2 29 28 29 C28 31.31 28 33.62 28 36 C18.76 36 9.52 36 0 36 C0 24.12 0 12.24 0 0 Z " fill="#F48812" transform="translate(732,804)"/>
<path d="M0 0 C-0.99 1.98 -1.98 3.96 -3 6 C-4.175625 5.67 -5.35125 5.34 -6.5625 5 C-10.5011676 4.0030467 -13.95139129 3.83130797 -18 4 C-18.33 5.65 -18.66 7.3 -19 9 C-16.04562447 10.29253929 -13.20299573 11.19988384 -10.0625 11.875 C-6.10339895 12.81978548 -3.22886023 14.47991397 0 17 C1.55024464 20.10048928 1.28992015 22.57894218 1 26 C-1.32744425 30.26698113 -4.23207107 32.0921831 -8.7265625 33.5625 C-15.87575812 34.93829022 -22.47460387 32.77933539 -29 30 C-29 26 -29 26 -27 23 C-26.3709375 23.22816406 -25.741875 23.45632813 -25.09375 23.69140625 C-19.18921284 25.67440593 -15.1106969 26.24477159 -9 25 C-9 23.68 -9 22.36 -9 21 C-9.86882812 20.75765625 -10.73765625 20.5153125 -11.6328125 20.265625 C-23.3814433 16.84879725 -23.3814433 16.84879725 -28 13 C-29.57455739 9.85088521 -29.34799118 7.47991184 -29 4 C-26.66461588 0.24923156 -24.89413498 -1.58869791 -20.875 -3.4375 C-13.42201703 -4.51938463 -6.46654137 -4.01974193 0 0 Z " fill="#F48913" transform="translate(293,807)"/>
<path d="M0 0 C2.16840469 1.20923674 4.243591 2.46745373 6.28515625 3.87890625 C4.51953125 7.70703125 4.51953125 7.70703125 2.41015625 9.25390625 C0.28515625 9.87890625 0.28515625 9.87890625 -1.5390625 8.9453125 C-5.43826372 7.03421388 -9.48495146 7.23656396 -13.71484375 7.87890625 C-17.02851187 9.60913019 -17.02851187 9.60913019 -18.71484375 12.87890625 C-19.3706997 17.26689485 -19.12507056 21.65738313 -17.71484375 25.87890625 C-13.52204207 28.4994073 -8.50908458 28.49607531 -3.71484375 27.87890625 C-1.19591705 26.56127296 -1.19591705 26.56127296 0.28515625 24.87890625 C2.90703119 25.92765623 4.07886986 26.52821938 5.53515625 29.00390625 C5.78265625 29.62265625 6.03015625 30.24140625 6.28515625 30.87890625 C0.76377344 35.75071461 -3.40676536 37.12427858 -10.71484375 36.75390625 C-17.13565749 36.07050281 -20.63102421 34.19426129 -24.96484375 29.37890625 C-28.84959027 23.82926836 -29.37495393 19.58647745 -28.71484375 12.87890625 C-26.94162146 7.45493219 -23.36144978 4.02721891 -18.71484375 0.87890625 C-12.74970044 -1.96765236 -6.18159632 -2.55268798 0 0 Z " fill="#F38A16" transform="translate(520.71484375,804.12109375)"/>
<path d="M0 0 C10.56 0 21.12 0 32 0 C32 1.98 32 3.96 32 6 C28.04 6 24.08 6 20 6 C20 15.9 20 25.8 20 36 C17.36 36 14.72 36 12 36 C12 26.43 12 16.86 12 7 C8.37 7 4.74 7 1 7 C0.67 6.67 0.34 6.34 0 6 C0 4.02 0 2.04 0 0 Z " fill="#F2840C" transform="translate(637,804)"/>
<path d="M0 0 C2.64 0 5.28 0 8 0 C8 9.57 8 19.14 8 29 C14.27 29 20.54 29 27 29 C27 31.31 27 33.62 27 36 C18.09 36 9.18 36 0 36 C0 24.12 0 12.24 0 0 Z " fill="#F48612" transform="translate(427,804)"/>
<path d="M0 0 C2.64 0 5.28 0 8 0 C8 9.57 8 19.14 8 29 C13.94 29 19.88 29 26 29 C26 31.31 26 33.62 26 36 C17.42 36 8.84 36 0 36 C0 24.12 0 12.24 0 0 Z " fill="#F4830E" transform="translate(386,804)"/>
<path d="M0 0 C2.97 0 5.94 0 9 0 C9 11.88 9 23.76 9 36 C6.03 36 3.06 36 0 36 C0 24.12 0 12.24 0 0 Z " fill="#F48E1B" transform="translate(358,804)"/>
<path d="M0 0 C0 2.64 0 5.28 0 8 C-3.18776711 7.85967508 -6.3751385 7.71173356 -9.5625 7.5625 C-10.45775391 7.52318359 -11.35300781 7.48386719 -12.27539062 7.44335938 C-16.03626804 7.26426997 -19.70881997 7.04235346 -23.4375 6.5 C-28.42540457 5.79994322 -33.40803605 5.63710787 -38.4375 5.4375 C-39.96407227 5.37272461 -39.96407227 5.37272461 -41.52148438 5.30664062 C-44.01421028 5.20131418 -46.50702338 5.09918328 -49 5 C-49 4.34 -49 3.68 -49 3 C-42.82542591 2.57057035 -36.65070225 2.14338367 -30.47583008 1.71826172 C-28.37585268 1.57336863 -26.27591724 1.42786604 -24.17602539 1.28173828 C-21.15521941 1.07163254 -18.13426861 0.8637294 -15.11328125 0.65625 C-14.17664139 0.59062866 -13.24000153 0.52500732 -12.27497864 0.45739746 C-11.39444321 0.39733521 -10.51390778 0.33727295 -9.60668945 0.27539062 C-8.45086113 0.19544861 -8.45086113 0.19544861 -7.27168274 0.1138916 C-4.84423712 -0.00780923 -2.43008799 -0.01890819 0 0 Z " fill="#F89421" transform="translate(243,819)"/>
<path d="M0 0 C16.37122487 -0.44379826 32.67901586 0.87678411 49 2 C49 2.66 49 3.32 49 4 C44.59366804 4.29148149 40.18694673 4.57590575 35.77978516 4.85449219 C34.28845689 4.94967656 32.79723902 5.0466109 31.30615234 5.14550781 C20.85462637 5.83710102 10.47408551 6.12764627 0 6 C0 4.02 0 2.04 0 0 Z " fill="#FC941F" transform="translate(781,820)"/>
<path d="M0 0 C1.93681161 -0.08107583 3.8745934 -0.13922475 5.8125 -0.1875 C6.89144531 -0.22230469 7.97039063 -0.25710938 9.08203125 -0.29296875 C12 0 12 0 13.86328125 1.35546875 C15.48797756 3.70597441 15.4189057 5.20729532 15 8 C13.86328125 9.64453125 13.86328125 9.64453125 12 11 C9.08203125 11.29296875 9.08203125 11.29296875 5.8125 11.1875 C4.72582031 11.16042969 3.63914062 11.13335938 2.51953125 11.10546875 C1.27236328 11.05326172 1.27236328 11.05326172 0 11 C0 7.37 0 3.74 0 0 Z " fill="#FEFCF9" transform="translate(692,811)"/>
<path d="M0 0 C4.30101398 3.78802031 5.99275493 9.1042464 8.25 14.25 C8.72179687 15.27480469 9.19359375 16.29960937 9.6796875 17.35546875 C12.1917642 23.06273073 13.75649106 26.90394277 12 33 C10.515 33.495 10.515 33.495 9 34 C8.74476563 32.60201172 8.74476563 32.60201172 8.484375 31.17578125 C6.45122419 20.48011025 3.4524505 10.32666304 0 0 Z " fill="#1E3454" transform="translate(722,291)"/>
<path d="M0 0 C0.33 0.66 0.66 1.32 1 2 C-0.18010189 4.7446309 -1.4192381 7.39217636 -2.75 10.0625 C-5.61506624 15.95558933 -8.16484745 21.69166311 -10 28 C-10.66 27.01 -11.32 26.02 -12 25 C-12.66 25.33 -13.32 25.66 -14 26 C-12.40193652 19.91117584 -9.1388717 14.9335245 -5.875 9.625 C-5.31167969 8.69816406 -4.74835938 7.77132813 -4.16796875 6.81640625 C-2.78393957 4.54096845 -1.39451078 2.2690237 0 0 Z " fill="#91CF46" transform="translate(313,273)"/>
<path d="M0 0 C0 3.02157189 -0.33451122 4.04465923 -1.64453125 6.65234375 C-1.99193359 7.34650391 -2.33933594 8.04066406 -2.69726562 8.75585938 C-3.06529297 9.47580078 -3.43332031 10.19574219 -3.8125 10.9375 C-4.16892578 11.65357422 -4.52535156 12.36964844 -4.89257812 13.10742188 C-9.65665783 22.53942554 -9.65665783 22.53942554 -13.1875 23.75 C-14.0846875 23.87375 -14.0846875 23.87375 -15 24 C-11.7389476 15.1280192 -5.78519839 7.39572981 0 0 Z " fill="#F89729" transform="translate(353,233)"/>
<path d="M0 0 C0.66 0.33 1.32 0.66 2 1 C0.56717148 3.27390187 -0.87100533 5.54410141 -2.3125 7.8125 C-2.71662109 8.45509766 -3.12074219 9.09769531 -3.53710938 9.75976562 C-3.93349609 10.38173828 -4.32988281 11.00371094 -4.73828125 11.64453125 C-5.09962158 12.21534424 -5.46096191 12.78615723 -5.83325195 13.37426758 C-7.07691062 15.10716631 -8.45556212 16.53326969 -10 18 C-10 16.68 -10 15.36 -10 14 C-10.99 14 -11.98 14 -13 14 C-12.14535156 13.15695312 -11.29070313 12.31390625 -10.41015625 11.4453125 C-9.29413953 10.33867407 -8.17826128 9.23189598 -7.0625 8.125 C-6.49853516 7.56941406 -5.93457031 7.01382812 -5.35351562 6.44140625 C-2.30139972 3.5078429 -2.30139972 3.5078429 0 0 Z " fill="#F8912E" transform="translate(717,485)"/>
<path d="M0 0 C0 0.66 0 1.32 0 2 C-0.66 2 -1.32 2 -2 2 C-2 2.66 -2 3.32 -2 4 C-13.52164009 6.29612756 -13.52164009 6.29612756 -19 6 C-15.81234216 3.25784615 -13.01059274 2.26642135 -8.9375 1.3125 C-7.89464844 1.06113281 -6.85179687 0.80976562 -5.77734375 0.55078125 C-3 0 -3 0 0 0 Z " fill="#152E4F" transform="translate(542,549)"/>
<path d="M0 0 C0.66 0 1.32 0 2 0 C2.66 6.27 3.32 12.54 4 19 C2.35 18.01 0.7 17.02 -1 16 C-0.67 10.72 -0.34 5.44 0 0 Z " fill="#F9B639" transform="translate(511,192)"/>
<path d="M0 0 C0.66 0 1.32 0 2 0 C3.56197114 1.71641978 5.05139042 3.49938639 6.5 5.3125 C7.69109375 6.79169922 7.69109375 6.79169922 8.90625 8.30078125 C11 11 11 11 13 14 C12.34 14 11.68 14 11 14 C10.67 15.32 10.34 16.64 10 18 C8.7069894 15.75076296 7.41555023 13.50064815 6.125 11.25 C5.76019531 10.61578125 5.39539063 9.9815625 5.01953125 9.328125 C3.2603169 6.25749632 1.53126626 3.19148125 0 0 Z " fill="#22B9F0" transform="translate(670,233)"/>
<path d="M0 0 C0.66 0 1.32 0 2 0 C0.41332422 3.90285767 -2.13350481 6.33520982 -5.125 9.25 C-6.03507813 10.14203125 -6.94515625 11.0340625 -7.8828125 11.953125 C-8.58148437 12.62859375 -9.28015625 13.3040625 -10 14 C-10.66 13.67 -11.32 13.34 -12 13 C-10.18777319 11.02058257 -8.37523172 9.04145495 -6.5625 7.0625 C-6.04623047 6.49853516 -5.52996094 5.93457031 -4.99804688 5.35351562 C-1.11328125 1.11328125 -1.11328125 1.11328125 0 0 Z " fill="#106699" transform="translate(553,150)"/>
<path d="M0 0 C2.68234235 2.42457972 4.36856725 5.07510397 6.1875 8.1875 C6.71730469 9.08855469 7.24710937 9.98960937 7.79296875 10.91796875 C8.19128906 11.60503906 8.58960938 12.29210937 9 13 C7.02 13.99 7.02 13.99 5 15 C4.16260219 12.8765984 3.33019717 10.7512272 2.5 8.625 C1.80390625 6.84996094 1.80390625 6.84996094 1.09375 5.0390625 C0 2 0 2 0 0 Z " fill="#28A441" transform="translate(284,435)"/>
<path d="M0 0 C0.66 0.33 1.32 0.66 2 1 C-1.63 3.31 -5.26 5.62 -9 8 C-9 6.68 -9 5.36 -9 4 C-10.98 4 -12.96 4 -15 4 C-15 3.67 -15 3.34 -15 3 C-13.75283203 2.80083984 -13.75283203 2.80083984 -12.48046875 2.59765625 C-11.39378906 2.42105469 -10.30710937 2.24445313 -9.1875 2.0625 C-8.10855469 1.88847656 -7.02960937 1.71445313 -5.91796875 1.53515625 C-2.95066644 1.06128079 -2.95066644 1.06128079 0 0 Z " fill="#F8BD3C" transform="translate(560,235)"/>
<path d="M0 0 C1.0209375 0.2165625 1.0209375 0.2165625 2.0625 0.4375 C5.36273082 1.06945909 8.67144426 1.54313941 12 2 C12.33 3.65 12.66 5.3 13 7 C9.34899606 7 7.89878202 5.9552415 4.8125 4.0625 C3.46091797 3.24458984 3.46091797 3.24458984 2.08203125 2.41015625 C1.39496094 1.94480469 0.70789063 1.47945313 0 1 C0 0.67 0 0.34 0 0 Z " fill="#2C656E" transform="translate(567,307)"/>
<path d="M0 0 C3.16305105 2.65810615 4.54145622 5.85097893 6.25 9.5625 C6.79140625 10.71878906 7.3328125 11.87507813 7.890625 13.06640625 C8.25671875 14.03449219 8.6228125 15.00257813 9 16 C8 18 8 18 6 19 C5.73445312 18.13117188 5.46890625 17.26234375 5.1953125 16.3671875 C4.84210937 15.21476562 4.48890625 14.06234375 4.125 12.875 C3.77695312 11.73804688 3.42890625 10.60109375 3.0703125 9.4296875 C2.08503467 6.27248336 1.05727464 3.13372394 0 0 Z " fill="#384460" transform="translate(722,291)"/>
<path d="M0 0 C4.95 0.99 9.9 1.98 15 3 C13.68 4.32 12.36 5.64 11 7 C6.89188572 5.55007731 3.53144334 3.54592427 0 1 C0 0.67 0 0.34 0 0 Z " fill="#F5B128" transform="translate(461,235)"/>
<path d="M0 0 C1.2109375 1.578125 1.2109375 1.578125 2 4 C0.98613427 6.4546223 -0.02723255 8.49546254 -1.375 10.75 C-1.71789062 11.35199219 -2.06078125 11.95398438 -2.4140625 12.57421875 C-3.26177818 14.05772119 -4.12905505 15.53001487 -5 17 C-5.66 17 -6.32 17 -7 17 C-5.24009216 11.08030998 -2.60305395 5.58365008 0 0 Z " fill="#263C59" transform="translate(613,683)"/>
<path d="M0 0 C0.33 0.66 0.66 1.32 1 2 C-0.07408957 4.60474038 -1.20045633 7.09966038 -2.4375 9.625 C-2.77587891 10.33140625 -3.11425781 11.0378125 -3.46289062 11.765625 C-4.30154879 13.51381384 -5.14987847 15.25735686 -6 17 C-6.99 16.34 -7.98 15.68 -9 15 C-6.03 10.05 -3.06 5.1 0 0 Z " fill="#95D459" transform="translate(313,273)"/>
<path d="M0 0 C8.03501094 -0.78774617 8.03501094 -0.78774617 12.0625 2.5 C12.701875 3.325 13.34125 4.15 14 5 C8.72250715 4.46148032 4.74354436 3.22656164 0 1 C0 0.67 0 0.34 0 0 Z " fill="#F8AF27" transform="translate(550,273)"/>
<path d="M0 0 C-0.99 0.66 -1.98 1.32 -3 2 C-2.67 2.66 -2.34 3.32 -2 4 C-5.3 4 -8.6 4 -12 4 C-9.8923766 -0.2152468 -4.26296995 -1.87570678 0 0 Z " fill="#E84F18" transform="translate(392,576)"/>
<path d="M0 0 C0.66 0.33 1.32 0.66 2 1 C-5.29840547 9.44646925 -5.29840547 9.44646925 -9 13 C-9.66 12.67 -10.32 12.34 -11 12 C-10.54109375 11.55269531 -10.0821875 11.10539063 -9.609375 10.64453125 C-6.16447701 7.25029352 -2.92744915 3.86423288 0 0 Z " fill="#E55521" transform="translate(431,539)"/>
<path d="M0 0 C0.66 0 1.32 0 2 0 C2 1.65 2 3.3 2 5 C5.3 5.33 8.6 5.66 12 6 C12 6.33 12 6.66 12 7 C10.18757948 7.02687279 8.37504767 7.04633715 6.5625 7.0625 C5.55316406 7.07410156 4.54382813 7.08570313 3.50390625 7.09765625 C1 7 1 7 0 6 C-0.04080783 4.00041636 -0.04254356 1.99954746 0 0 Z " fill="#F6A449" transform="translate(637,804)"/>
<path d="M0 0 C0.66 0.33 1.32 0.66 2 1 C-1.63 4.63 -5.26 8.26 -9 12 C-9 8.00102358 -7.64683965 6.93298448 -5 4 C-3.36643049 2.62631655 -1.7074998 1.28062485 0 0 Z " fill="#F1F8E8" transform="translate(571,330)"/>
<path d="M0 0 C0.33 1.32 0.66 2.64 1 4 C-2.18762365 6.12508244 -4.26512223 6.5020163 -8 7 C-5.4837822 4.39391727 -2.94865641 2.10618315 0 0 Z " fill="#1CA3E3" transform="translate(475,552)"/>
<path d="M0 0 C3.99500618 1.3697164 6.80009492 3.25722422 10 6 C9.01 6.66 8.02 7.32 7 8 C5.83035398 6.8572081 4.66435444 5.71068285 3.5 4.5625 C2.8503125 3.92441406 2.200625 3.28632813 1.53125 2.62890625 C0 1 0 1 0 0 Z " fill="#FBB32C" transform="translate(465,217)"/>
<path d="M0 0 C0.66 0 1.32 0 2 0 C7.53104925 5.93576017 7.53104925 5.93576017 8 10 C3.96379847 8.65459949 3.14832694 6.58054491 1 3 C0.67 2.01 0.34 1.02 0 0 Z " fill="#32BEF7" transform="translate(670,233)"/>
<path d="M0 0 C0.78890625 0.12761719 1.5778125 0.25523437 2.390625 0.38671875 C3.18984375 0.50660156 3.9890625 0.62648438 4.8125 0.75 C5.41578125 0.85699219 6.0190625 0.96398437 6.640625 1.07421875 C6.640625 1.40421875 6.640625 1.73421875 6.640625 2.07421875 C0.205625 2.56921875 0.205625 2.56921875 -6.359375 3.07421875 C-2.359375 0.07421875 -2.359375 0.07421875 0 0 Z " fill="#38506A" transform="translate(529.359375,551.92578125)"/>
<path d="M0 0 C4.17882671 2.56428003 7.12505529 5.01930733 10 9 C5.57238086 7.60846256 3.0443745 5.47928514 0 2 C0 1.34 0 0.68 0 0 Z " fill="#7FBB31" transform="translate(310,461)"/>
<path d="M0 0 C0.66 0 1.32 0 2 0 C3.32 2.64 4.64 5.28 6 8 C5.34 8 4.68 8 4 8 C3.67 8.66 3.34 9.32 3 10 C2.01 6.7 1.02 3.4 0 0 Z " fill="#FCBE42" transform="translate(485,200)"/>
<path d="M0 0 C0.99 0.33 1.98 0.66 3 1 C1.37660195 2.70884005 -0.29319053 4.37446717 -2 6 C-2.66 6 -3.32 6 -4 6 C-2.84826645 3.53199953 -1.95216435 1.95216435 0 0 Z " fill="#19314F" transform="translate(506,680)"/>
<path d="M0 0 C2.31 0.33 4.62 0.66 7 1 C6.67 2.65 6.34 4.3 6 6 C3.97945196 4.35830472 1.97956942 2.69088222 0 1 C0 0.67 0 0.34 0 0 Z " fill="#C4DF9F" transform="translate(459,335)"/>
<path d="M0 0 C-0.33 0.99 -0.66 1.98 -1 3 C-3.97 2.505 -3.97 2.505 -7 2 C-7 1.34 -7 0.68 -7 0 C-3.98968256 -0.93423645 -3.13349732 -1.04449911 0 0 Z " fill="#F37E22" transform="translate(433,582)"/>
<path d="M0 0 C0.66 0 1.32 0 2 0 C2 4 2 4 1 7 C-0.32 6.67 -1.64 6.34 -3 6 C-2.01 4.02 -1.02 2.04 0 0 Z " fill="#F6BC45" transform="translate(496,275)"/>
<path d="M0 0 C1 2 1 2 0.44140625 3.9453125 C0.15136719 4.66460937 -0.13867188 5.38390625 -0.4375 6.125 C-0.72496094 6.84945312 -1.01242187 7.57390625 -1.30859375 8.3203125 C-1.53675781 8.87460938 -1.76492188 9.42890625 -2 10 C-2.33 9.34 -2.66 8.68 -3 8 C-3.66 7.67 -4.32 7.34 -5 7 C-3.35 4.69 -1.7 2.38 0 0 Z " fill="#FBBB3C" transform="translate(538,200)"/>
<path d="M0 0 C0.66 0.33 1.32 0.66 2 1 C1.0479279 2.00596297 0.08812654 3.00461563 -0.875 4 C-1.40867187 4.556875 -1.94234375 5.11375 -2.4921875 5.6875 C-4 7 -4 7 -6 7 C-4.60667426 3.63279613 -3.0210714 2.0140476 0 0 Z " fill="#1B3250" transform="translate(492,695)"/>
<path d="M0 0 C1.32 0.33 2.64 0.66 4 1 C3.34 1 2.68 1 2 1 C1.71125 1.763125 1.4225 2.52625 1.125 3.3125 C0 6 0 6 -2 9 C-1.125 2.25 -1.125 2.25 0 0 Z " fill="#1F78AB" transform="translate(501,141)"/>
</svg>
